<?xml version="1.0" standalone="no"?><!DOCTYPE svg PUBLIC "-//W3C//DTD SVG 1.1//EN" "http://www.w3.org/Graphics/SVG/1.1/DTD/svg11.dtd"><svg t="1742440529192" class="icon" viewBox="0 0 1024 1024" version="1.1" xmlns="http://www.w3.org/2000/svg" p-id="8786" xmlns:xlink="http://www.w3.org/1999/xlink" width="200" height="200"><path d="M519.414 630.069h4.809v0.715h-4.809v-0.715z m-53.655 278.105l2.759 0.987c-6.786-5.376-24.131-17.905-46.722-25.359-26.87-8.856-66.906-12.119-105.028 22.647-0.432 0.402-0.979 0.533-1.576 0.383-9.113-2.238-48.576-99.742-83.727-191.115-1.909 1.29-3.764 2.747-5.704 4.28-3.415 2.697-7.115 5.604-11.666 7.913 43.937 109.811 88.02 217.256 94.472 223.49 40.152-85.106 94.398-65.701 157.192-43.226z m262.704-2.585c-0.599 0.146-1.141 0.02-1.575-0.383-38.132-34.779-78.184-31.519-105.077-22.666-22.47 7.407-39.742 19.835-46.586 25.236l0.254-0.093C633.99 886.213 694.486 864 735.09 950.054c6.268-6.066 48.035-107.613 90.686-214.067-0.477-0.225-0.935-0.422-1.354-0.538-7.197-1.939-12.376-5.496-16.751-9.197-33.941 87.764-70.483 177.196-79.208 179.337zM516.507 631.494l-0.21-0.243c-16.07-18.596-161.893-180.551-330.284-142.235-1.183 1.832 7.508 19.984 16.706 36.599l29.193-0.828-15.101-26.555 1.012-0.158c98.033-15.844 261.902 104.664 293.755 128.981l-0.785 1.112c0.888 0.505 1.762 1.014 2.608 1.523l1.403 0.831-1.567 0.458c-0.526 0.159-1.081 0.925-1.081 2.039l8.281 272.001c0 1.243 0.688 2.149 1.304 2.149h1.491c0.611 0 1.304-0.906 1.304-2.126l8.282-271.74c0-1.037-0.547-1.809-1.301-1.809h-3.336l2.173-1.317c36.721-22.424 111.572-48.171 190.706-65.599 63.526-13.992 136.299-23.466 150.011-8.08l0.29 0.317-0.149 0.402c-1.606 4.407-14.591 39.901-32.168 86.68 6.837 1.716 14.287 3.927 20.85 6.431a26433.48 26433.48 0 0 0 46.483-118.138c-180.728-18.303-330.104 67.729-371.633 94.579l-0.824-1.173c44.652-34.099 197.632-144.18 291.911-128.944l1.02 0.168-15.101 26.518 29.196 0.762c9.188-16.544 17.881-34.636 16.628-36.515-167.78-38.142-314.11 124.942-330.243 143.665l-0.22 0.248h-1.309v-0.715H517.857v0.715h-1.342v-0.005h-0.008zM172.448 558.32l-0.145-0.401 0.283-0.318c13.654-15.311 86.484-6.02 150.096 7.771 76.443 16.583 149.036 40.772 187.058 62.195-43.013-27.62-191.874-112.301-372.456-94.003 10.894 27.91 26.02 66.43 42.817 108.875 7.36-1.901 15.231-3.394 21.896-4.374-16.237-43.315-28.018-75.553-29.549-79.745z m-14.425 101.3c-0.62 3.659 1.444 6.758 2.729 8.281 3.12 3.692 7.351 5.156 8.728 4.285 11.773-7.388 30.561-13.856 55.837-19.213 3.041-0.645 11.544-3.374 10.766-7.346-1.023-5.203-8.931-6.292-15.385-6.292-2.073 0-3.865 0.117-4.94 0.183l-0.947 0.056c-9.55 0.327-35.283 4.557-48.664 10.479-3.322 1.471-7.498 5.879-8.124 9.567z m6.403 26.546c1.57 5.524 4.47 8.337 8.613 8.337 2.893 0 5.377-1.378 6.071-1.8l0.638-0.388c5.763-3.527 23.293-14.264 50.393-17.398 12.05-1.394 26.146-7.399 25.579-12.764-0.188-1.824-0.755-7.329-12.388-7.329-6.12 0-13.266 1.454-19.444 2.865-14.736 3.394-39.396 10.951-52.618 16.802-3.047 1.346-8.361 6.31-6.844 11.675z m73.328-7.997c-0.308 0.038-0.57 0.07-0.785 0.09-12.284 1.149-34.904 6.939-55.52 16.936-3.201 1.562-6.805 5.576-7.034 9.348-0.259 4.309 1.393 7.02 2.823 8.534 2.155 2.294 4.856 3.112 6.667 3.112 0.584 0 1.105-0.084 1.551-0.238 8.784-3.098 15.054-6.659 21.123-10.096 5.573-3.163 11.34-6.431 18.849-9.168 0.266-0.098 0.946-0.286 1.928-0.547 19.626-5.245 22.097-9.272 21.818-11.212-0.68-4.777-3.307-6.996-8.258-6.996-1.231 0-2.349 0.135-3.162 0.237z m-13.696 24.022l-0.383 0.14c-8.901 3.136-14.303 6.576-25.062 13.446-1.862 1.187-3.879 2.478-6.102 3.879-1.544 0.979-2.444 2.038-2.676 3.159-0.22 1.094 0.156 2.356 1.122 3.758 2.503 3.621 4.433 4.043 5.671 4.043 1.285 0 2.601-0.538 3.877-1.047 0.934-0.379 1.902-0.767 2.874-0.954 9.123-1.762 14.962-6.379 20.615-10.853 2.565-2.022 4.986-3.944 7.65-5.551 0.162-0.098 0.372-0.221 0.622-0.36 1.856-1.061 6.789-3.879 7.457-7.338 0.262-1.383-0.177-2.771-1.348-4.238-0.409-0.51-1.414-0.795-2.84-0.795-3.943 0-9.612 2.038-11.477 2.711z m595.202-59.242c-1.729-0.239-4.935-0.678-8.449-0.678-4.936 0-11.086 0.916-12.282 5.3-1.056 3.893 7.226 7.234 10.218 8.095 24.816 7.179 43.089 14.983 54.302 23.204 0.298 0.22 0.762 0.342 1.336 0.342 2.023 0 5.436-1.505 8.044-4.38 2.149-2.365 3.195-5.089 2.948-7.669-0.351-3.725-4.202-8.427-7.407-10.133-12.918-6.875-38.277-12.946-47.778-13.964-0.212-0.024-0.525-0.066-0.932-0.117z m41.834 38.085c-12.763-6.786-36.814-16.109-51.265-20.555-7.019-2.149-15.063-4.355-21.545-4.355-8.403 0-10.039 3.711-10.534 6.496-0.944 5.318 12.68 12.328 24.592 14.586 26.779 5.081 43.498 17.046 48.989 20.984l0.621 0.444c0.743 0.524 3.416 2.253 6.558 2.253 3.818 0 6.701-2.6 8.566-7.721 1.902-5.233-3.042-10.565-5.982-12.132z m-11.647 19.918c-19.85-11.469-41.991-18.876-54.162-20.899-0.205-0.037-0.468-0.094-0.761-0.15-1.015-0.205-2.558-0.509-4.184-0.509-4.244 0-6.758 2.1-7.702 6.427-0.411 1.907 1.756 6.112 20.966 12.754 0.953 0.327 1.617 0.565 1.874 0.679 7.286 3.279 12.801 6.953 18.138 10.514 5.805 3.87 11.797 7.86 20.334 11.592 0.548 0.242 1.239 0.363 2.006 0.363 4.029 0 9.739-3.397 9.828-10.936 0.043-3.787-3.252-8.049-6.337-9.835z m-42.636 4.067l-0.374-0.159c-5.317-2.369-9.333-3.57-11.937-3.57-0.743 0-1.729 0.112-2.201 0.612-1.275 1.384-1.809 2.734-1.649 4.131 0.411 3.496 5.131 6.661 6.908 7.848 0.233 0.168 0.434 0.299 0.588 0.406 2.542 1.8 4.817 3.884 7.235 6.095 5.313 4.865 10.805 9.895 19.772 12.311 0.959 0.256 1.894 0.715 2.8 1.164 1.338 0.654 2.725 1.332 4.127 1.332 1.814 0 3.65-1.184 5.613-3.632 1.065-1.327 1.533-2.562 1.393-3.664-0.149-1.141-0.973-2.268-2.439-3.346-2.108-1.557-4.021-2.982-5.786-4.296-10.241-7.633-15.386-11.46-24.05-15.232zM160.458 544.164l131.991 345.602 227.989 15.254 232.543-19.554 129.121-335.717-126.252-5.585-58.821 27.106-50.212 9.403-24.393 7.814-46.029 14.025-36.216 14.665-11.997 14.315-3.959-0.71-57.922-28.271-94.946-29.177-131.991-29.173h-78.906z m112.443-232.31c0 63.292 24.875 120.966 65.802 163.608-134.02 52.4-226.309 167.804-226.309 333.262 0 149.858 793.966 172.114 802.524 0C923.243 643 826.617 527.068 689.172 474.902c40.394-42.617 65.243-99.784 65.243-163.078 0-131.559-107.832-238.243-240.757-238.243-132.928 0.001-240.757 106.685-240.757 238.273z m53.501 0c0-102.456 83.731-185.305 187.256-185.305 103.526 0 187.258 82.872 187.258 185.305 0 74.125-44.136 138.195-107.833 167.833 153.816 35.473 268.343 145.605 268.343 308.68 0 125.757-695.53 119.12-695.53 0 0-163.074 114.498-273.18 268.314-308.68-63.67-29.637-107.808-93.707-107.808-167.833zM164.898 558.512l20.563 44.002 39.695-55.719-33.476-2.631-26.782 14.348z m691.378 58.667l30.124-63.125-30.124-9.89H823.28l-25.826 5.59 58.822 67.425z" fill="#333333" p-id="8787"></path></svg>