<?xml version="1.0" standalone="no"?><!DOCTYPE svg PUBLIC "-//W3C//DTD SVG 1.1//EN" "http://www.w3.org/Graphics/SVG/1.1/DTD/svg11.dtd"><svg t="1742434918811" class="icon" viewBox="0 0 1024 1024" version="1.1" xmlns="http://www.w3.org/2000/svg" p-id="2731" xmlns:xlink="http://www.w3.org/1999/xlink" width="200" height="200"><path d="M812.066229 479.850047c0-23.032802 12.796001-44.146204 33.269604-55.662606s46.065604-11.516401 66.539206 0 33.269603 32.629803 33.269603 55.662606c0 207.93502-158.670415 380.041237-366.605436 410.75164V959.700094c0 23.032802-12.796001 44.146204-33.269603 55.662605-20.473602 11.516401-46.065604 11.516401-66.539206 0-20.473602-11.516401-33.269603-32.629803-33.269603-55.662605v-69.098407c-207.29522-30.710403-366.605436-202.81662-366.605436-410.75164 0-23.032802 12.796001-44.146204 33.269603-55.662606s46.065604-11.516401 66.539206 0 33.269603 32.629803 33.269604 55.662606C211.933771 639.160262 346.291784 767.760075 512 767.760075s300.066229-128.599813 300.066229-287.910028zM512 0c62.060606 0 120.922212 23.672602 165.068416 65.899406 43.506404 42.226804 68.458607 99.16901 68.458607 158.030616v255.920025c0 123.481412-104.28741 223.930022-233.527023 223.930022S278.472977 603.331459 278.472977 479.850047v-255.920025C278.472977 100.44861 383.400187 0 512 0z" fill="#8D9199" p-id="2732"></path></svg>