<?xml version="1.0" standalone="no"?><!DOCTYPE svg PUBLIC "-//W3C//DTD SVG 1.1//EN" "http://www.w3.org/Graphics/SVG/1.1/DTD/svg11.dtd"><svg t="1742440506328" class="icon" viewBox="0 0 1024 1024" version="1.1" xmlns="http://www.w3.org/2000/svg" p-id="7775" xmlns:xlink="http://www.w3.org/1999/xlink" width="200" height="200"><path d="M582.24 863.336h10.672c46.136 0 92.264-0.064 138.4 0.032 22.392 0.048 37.208 14.808 36.864 36.352-0.288 18.096-14.352 32.496-32.888 33.648-1.64 0.104-3.296 0.032-4.944 0.032-145.544 0-291.08 0.016-436.624-0.008-26.736-0.008-43.808-21.864-36.096-46.064 4.728-14.832 18.104-23.944 35.568-23.968 46.136-0.056 92.264-0.016 138.4-0.016h10.16c0.256-2.808 0.608-4.912 0.608-7.016 0.032-38.448-0.008-76.888 0.072-115.336 0.008-4.144-0.32-6.96-5.328-8.496-66.464-20.336-111.92-64.944-143.384-125.32-19.576-37.56-32.624-77.408-37.096-119.512-2.048-19.256-0.352-38.904-0.352-59.472h68.392v-59.464h146.544v-20.672h-145.824v-41.512h145.944v-19.864h-145.992v-41.528h145.568V225.36h-147.6c3.824-14.048 7.008-26.68 10.936-39.072 0.504-1.576 4.824-2.752 7.376-2.76 39.816-0.168 79.632-0.12 119.456-0.12h10.136v-20.08h-127.36c10.256-11.328 18.384-21.936 28.128-30.768 28.96-26.24 63.576-39.864 102.456-41.168 27.408-0.92 55.032-1.48 82.312 0.768 50.016 4.128 89.984 27.36 120.2 69.888h-125.072l-1.2 20.272c3.896 0.184 7.056 0.448 10.216 0.456 39.816 0.032 79.64 0.208 119.448-0.176 6.264-0.064 8.936 2.128 10.288 7.576 2.68 10.808 5.456 21.584 8.528 33.704h-146.888l-1.032 20.856h146.904v41.464H552.16v20.272h145.88v41.704h-146.184v20.016h146.624v59.528h67.76c0.912 0.976 1.592 1.36 1.608 1.768 4.752 99.096-24.432 185.584-96.344 255.608-23.36 22.744-51.864 37.496-82.856 47.528-2.496 0.808-6.144 3.736-6.16 5.712-0.336 41.136-0.248 82.296-0.248 125z m117.888-384.016c-1.808 15.128-2.144 29.816-5.472 43.8-14.608 61.368-73.448 108.856-138.976 112.248-24.104 1.248-48.344 1.576-72.44 0.488-17.112-0.776-34.856-2.28-50.992-7.52-57.632-18.72-95.696-56.4-106.336-117.888-1.752-10.104-1.128-20.608-1.608-30.968h-25.08c2.416 15.064 3.664 29.568 7.16 43.504 14.544 58 51.216 99.024 101.488 129 26.872 16.024 55.688 27.2 86.848 31.368 41.112 5.504 78.208-7.76 113.4-26.712 50.88-27.4 88.736-66.8 106.792-122.944a174.976 174.976 0 0 0 8.512-54.36c-8.344-0.016-15.928-0.016-23.296-0.016z" fill="#5D5D5D" p-id="7776"></path></svg>